<svg width="250" height="201" viewBox="0 0 250 201" fill="none" xmlns="http://www.w3.org/2000/svg">
<path fill-rule="evenodd" clip-rule="evenodd" d="M145.437 62.6739C132.415 69.6306 118.776 72.6256 104.457 67.3559C96.7437 64.5171 90.2508 63.9985 84.6831 65.2789C79.1166 66.5591 74.4124 69.6518 70.3023 74.1425C62.0573 83.1513 56.2856 97.6895 50.8286 114.125C49.3621 118.542 47.9189 123.094 46.4568 127.705C42.4929 140.208 38.39 153.149 33.3074 165.024C26.3496 181.28 17.5141 195.65 4.57027 204.258L3.93327 203.4C16.6103 194.969 25.3459 180.832 32.2805 164.63C37.3421 152.804 41.4221 139.936 45.3813 127.448C46.8467 122.826 48.2956 118.257 49.7716 113.811C55.2207 97.3992 61.0477 82.6529 69.4648 73.4561C73.6859 68.8441 78.5786 65.6038 84.4215 64.2601C90.263 62.9167 96.9917 63.4834 104.859 66.3787C118.762 71.4954 132.043 68.6252 144.892 61.7608C157.759 54.887 170.12 44.0452 182.139 33.3184C182.676 32.8391 183.212 32.3599 183.748 31.8814C195.173 21.6762 206.301 11.7363 217.191 5.74897C228.62 -0.53411 239.914 -2.52969 251.063 4.16962L250.469 5.05479C239.806 -1.35224 228.985 0.477512 217.748 6.65559C206.972 12.5799 195.93 22.4428 184.462 32.6856C183.942 33.1502 183.421 33.6155 182.899 34.0812C170.899 44.7914 158.441 55.7266 145.437 62.6739Z" fill="#DDDDDD" fill-opacity="0.3"/>
<path fill-rule="evenodd" clip-rule="evenodd" d="M184.719 46.4985C161.123 67.5566 134.938 88.8017 103.45 88.8017C90.8606 88.8017 81.0222 95.44 72.5958 105.661C64.1624 115.891 57.2101 129.63 50.3867 143.677C49.7444 144.999 49.1032 146.324 48.4621 147.649C42.305 160.373 36.1506 173.091 29.015 183.327C21.1395 194.624 11.9916 203.013 0.19413 205L0 203.968C11.3412 202.058 20.2671 193.972 28.0902 182.75C35.1757 172.586 41.2935 159.944 47.4593 147.203C48.0986 145.882 48.7385 144.559 49.38 143.239C56.1954 129.208 63.1969 115.357 71.7223 105.016C80.2548 94.6663 90.3801 87.7532 103.45 87.7532C134.436 87.7532 160.313 66.8379 183.959 45.7357C186.127 43.8008 188.276 41.8643 190.409 39.943C199.875 31.4144 209.01 23.1845 217.976 16.7151C228.957 8.79076 239.781 3.43261 250.766 3.43261V4.48112C240.155 4.48112 229.576 9.66303 218.647 17.5488C209.735 23.98 200.656 32.1596 191.191 40.686C189.054 42.6112 186.898 44.5541 184.719 46.4985Z" fill="#DDDDDD" fill-opacity="0.3"/>
<path fill-rule="evenodd" clip-rule="evenodd" d="M199.953 46.4985C176.357 67.5566 150.173 88.8017 118.684 88.8017C106.095 88.8017 96.2562 95.44 87.8299 105.661C79.3964 115.891 72.4442 129.63 65.6207 143.677C64.9784 144.999 64.3373 146.324 63.6961 147.649C57.539 160.373 51.3847 173.091 44.2491 183.327C36.3735 194.624 27.2256 203.013 15.4282 205L15.234 203.968C26.5753 202.058 35.5011 193.972 43.3243 182.75C50.4097 172.586 56.5275 159.944 62.6933 147.203C63.3327 145.882 63.9725 144.559 64.614 143.239C71.4294 129.208 78.431 115.357 86.9563 105.016C95.4888 94.6663 105.614 87.7532 118.684 87.7532C149.67 87.7532 175.547 66.8379 199.193 45.7357C201.361 43.8008 203.51 41.8643 205.643 39.943C215.109 31.4144 224.244 23.1845 233.21 16.7151C244.191 8.79076 255.015 3.43261 266 3.43261V4.48112C255.389 4.48112 244.81 9.66303 233.882 17.5488C224.969 23.98 215.89 32.1596 206.425 40.686C204.288 42.6112 202.132 44.5541 199.953 46.4985Z" fill="#DDDDDD" fill-opacity="0.3"/>
</svg>
